#!OML:ASF H:\Terrain\Patient Classification 1\Walking\liu\liu.ASF
:FULLY-SPECIFIED
:DEGREES
388
root 18.925659 34.169998 36.261200 11.795480 -0.493308 -10.107460
lowerback -12.921540 4.941500 3.324480
upperback -0.239790 6.105240 6.669360
thorax 6.803560 3.042180 5.597620
lowerneck -38.479401 -12.423260 -26.616600
upperneck 43.520000 -16.225760 26.659000
head 22.782600 -6.499620 11.769620
rclavicle 0.000000 -0.000000
rhumerus -55.729401 32.710602 -166.263000
rradius 87.365196
rwrist -42.078400
rhand -63.130001 -45.499001
rfingers 14.250040
rthumb -9.657460 -105.348801
lclavicle 0.000000 -0.000000
lhumerus -101.238403 -23.179399 190.794800
lradius 52.450199
lwrist 19.256001
lhand -26.089399 -45.078999
lfingers 14.250040
lthumb 26.100201 14.064480
rfemur 4.685580 10.403920 62.759800
rtibia 29.390800
rfoot -31.775600 11.388900
rtoes -29.626801
lfemur -81.582802 5.325760 -30.827000
ltibia 58.853199
lfoot -29.037800 18.408340
ltoes -25.170401
389
root 18.945560 34.168999 36.547001 11.761160 -1.108874 -9.596620
lowerback -13.313060 5.280780 2.743440
upperback 0.168563 6.579400 6.509820
thorax 7.406600 3.265180 5.838520
lowerneck -39.041801 -12.696660 -26.762800
upperneck 43.367001 -16.487120 26.672600
head 22.886000 -6.608400 11.744660
rclavicle 0.000000 -0.000000
rhumerus -54.094601 32.564800 -166.141006
rradius 85.817802
rwrist -42.321999
rhand -64.594200 -44.029800
rfingers 14.250040
rthumb -11.071260 -103.845200
lclavicle 0.000000 -0.000000
lhumerus -101.197403 -23.422800 191.140594
lradius 52.515202
lwrist 19.812160
lhand -25.858801 -43.238400
lfingers 14.250040
lthumb 26.322599 15.890780
rfemur 7.215480 11.008480 62.111801
rtibia 26.795000
rfoot -30.892599 11.460800
rtoes -27.318600
lfemur -81.617798 5.071800 -31.365601
ltibia 55.947800
lfoot -29.834400 18.867941
ltoes -21.069201
390
root 18.954020 34.148201 36.800201 11.892800 -1.293480 -10.277020
lowerback -13.543260 5.367500 3.126280
upperback 0.250864 6.643180 6.783920
thorax 7.624900 3.300000 5.932260
lowerneck -38.981602 -12.712340 -26.685801
upperneck 43.191200 -16.464540 26.459400
head 22.789400 -6.618440 11.644680
rclavicle -0.000000 -0.000000
rhumerus -53.159599 32.765999 -166.238602
rradius 84.688400
rwrist -42.325802
rhand -66.231598 -45.458599
rfingers 14.250040
rthumb -12.652000 -105.229599
lclavicle -0.000000 -0.000000
lhumerus -101.533997 -22.832399 191.124802
lradius 52.769600
lwrist 19.932880
lhand -26.038000 -43.459801
lfingers 14.250040
lthumb 26.149599 15.680560
rfemur 9.536780 11.866840 62.967999
rtibia 23.978201
rfoot -29.971800 10.873080
rtoes -26.291401
lfemur -82.306396 4.553000 -30.237000
ltibia 53.277599
lfoot -29.944401 19.392620
ltoes -24.363400
391
root 18.974119 34.103401 37.051800 11.999260 -1.474580 -11.532240
lowerback -13.778760 5.503560 4.207460
upperback 0.374082 6.706780 7.178680
thorax 7.922600 3.346740 5.764620
lowerneck -38.975201 -12.573280 -26.661400
upperneck 42.955601 -16.285839 26.598000
head 22.677401 -6.520360 11.716280
rclavicle -0.000000 -0.000000
rhumerus -52.592800 32.598400 -166.306000
rradius 84.090401
rwrist -41.984200
rhand -64.463203 -44.086201
rfingers 14.250040
rthumb -10.944660 -103.904999
lclavicle -0.000000 -0.000000
lhumerus -101.815399 -22.063801 190.873199
lradius 53.094002
lwrist 19.682779
lhand -25.098801 -43.450001
lfingers 14.250040
lthumb 27.055000 15.631280
rfemur 11.962580 11.569600 64.229599
rtibia 20.776400
rfoot -28.962799 11.484120
rtoes -28.450800
lfemur -83.039398 3.705660 -28.152399
ltibia 50.770599
lfoot -30.231001 19.980820
ltoes -33.361801
392
root 19.006701 34.075802 37.320999 11.847620 -1.622458 -12.282300
lowerback -13.663100 5.632940 4.977240
upperback 0.453160 6.809280 7.407800
thorax 7.968580 3.410380 5.580660
lowerneck -38.978199 -12.528820 -26.844400
upperneck 42.900398 -16.209499 26.791000
head 22.663799 -6.479220 11.834560
rclavicle -0.000000 -0.000000
rhumerus -52.508598 32.272999 -166.412796
rradius 83.841003
rwrist -41.451401
rhand -63.426800 -42.709801
rfingers 14.250040
rthumb -9.944040 -102.553200
lclavicle -0.000000 -0.000000
lhumerus -102.316803 -21.442600 190.785995
lradius 53.407600
lwrist 19.589340
lhand -24.040199 -43.049999
lfingers 14.250040
lthumb 28.075199 15.961940
rfemur 14.401260 11.588840 64.867203
rtibia 18.139620
rfoot -28.465401 11.655800
rtoes -30.887400
lfemur -83.106201 2.724060 -26.726400
ltibia 48.153801
lfoot -30.810801 20.074400
ltoes -34.453999
393
root 19.041140 34.077400 37.593800 11.920480 -1.626132 -12.550540
lowerback -13.722240 5.697260 5.245680
upperback 0.302368 6.872260 7.521340
thorax 7.852400 3.445980 5.552700
lowerneck -38.385799 -12.481620 -27.089399
upperneck 42.926201 -16.148840 26.814800
head 22.560400 -6.490920 11.901480
rclavicle 0.000000 0.000000
rhumerus -52.754002 32.393200 -166.657196
rradius 83.598396
rwrist -41.504799
rhand -64.107002 -42.953999
rfingers 14.250040
rthumb -10.600740 -102.781403
lclavicle 0.000000 0.000000
lhumerus -103.086601 -21.077999 191.072006
lradius 53.563202
lwrist 19.871201
lhand -23.802799 -47.118198
lfingers 14.250040
lthumb 28.304001 11.877880
rfemur 17.087040 11.478000 64.969597
rtibia 14.534280
rfoot -26.192200 11.653920
rtoes -28.756399
lfemur -83.398598 1.184784 -25.616800
ltibia 45.971199
lfoot -31.789200 20.927200
ltoes -29.664400
394
root 19.070601 34.084999 37.862202 12.630460 -1.900528 -11.587820
lowerback -14.560040 5.759440 4.097660
upperback 0.169939 7.026440 7.267240
thorax 8.126640 3.501400 5.989940
lowerneck -37.926201 -12.371180 -27.253201
upperneck 42.680000 -15.999280 26.916401
head 22.367599 -6.442140 11.987800
rclavicle -0.000000 0.000000
rhumerus -52.473598 32.317001 -166.877197
rradius 83.088600
rwrist -41.198799
rhand -63.036400 -44.387798
rfingers 14.250040
rthumb -9.567020 -104.239799
lclavicle -0.000000 0.000000
lhumerus -103.410202 -20.762600 191.293793
lradius 53.391800
lwrist 19.656981
lhand -20.518999 -40.174999
lfingers 14.250040
lthumb 31.467400 18.585840
rfemur 20.349800 11.656880 63.668598
rtibia 8.391160
rfoot -22.073999 11.991860
rtoes -21.969999
lfemur -84.306396 -0.714574 -25.543600
ltibia 44.081001
lfoot -32.487000 22.300600
ltoes -24.460800
395
root 19.069780 34.052601 38.140202 12.536960 -2.234280 -13.154020
lowerback -14.678340 6.001040 5.335140
upperback 0.394864 7.208080 7.687080
thorax 8.472400 3.610880 5.775080
lowerneck -38.135201 -12.347120 -26.922600
upperneck 42.509998 -15.944380 26.624800
head 22.306200 -6.414940 11.817780
rclavicle 0.000000 0.000000
rhumerus -51.923000 31.783400 -167.087799
rradius 82.429802
rwrist -40.237801
rhand -61.533001 -45.717400
rfingers 14.250040
rthumb -8.115380 -105.599602
lclavicle 0.000000 0.000000
lhumerus -103.589401 -20.330200 191.192398
lradius 53.338600
lwrist 18.753941
lhand -20.537201 -41.249001
lfingers 14.250040
lthumb 31.449800 17.513359
rfemur 25.657600 11.930820 65.355400
rtibia -0.000000
rfoot -17.575439 12.086960
rtoes -17.821301
lfemur -84.591202 -2.165340 -22.403799
ltibia 42.519798
lfoot -32.170399 24.003799
ltoes -24.850201
396
root 19.106100 34.014000 38.428600 12.368140 -2.382500 -13.884300
lowerback -14.726080 6.263240 6.205840
upperback 0.644892 7.460200 7.826740
thorax 8.800960 3.752360 5.479440
lowerneck -38.669800 -12.570960 -26.836201
upperneck 42.684399 -16.162979 26.334999
head 22.491400 -6.519960 11.655920
rclavicle -0.000000 -0.000000
rhumerus -51.648201 31.288000 -167.073196
rradius 81.931396
rwrist -39.868999
rhand -61.543201 -44.744400
rfingers 14.250040
rthumb -8.125260 -104.626404
lclavicle -0.000000 -0.000000
lhumerus -103.806999 -20.191200 191.336594
lradius 53.548401
lwrist 18.136761
lhand -23.837400 -50.031799
lfingers 14.250040
lthumb 28.270800 8.966460
rfemur 27.030001 11.953460 65.969002
rtibia -0.000000
rfoot -17.559019 12.440480
rtoes -16.479321
lfemur -84.561401 -4.482240 -20.082199
ltibia 41.060200
lfoot -31.506599 27.676600
ltoes -32.956402
397
root 19.158880 33.967800 38.735199 12.302720 -2.777320 -13.706700
lowerback -14.880940 6.521640 6.254060
upperback 0.743940 7.790220 7.733740
thorax 8.994160 3.917640 5.408320
lowerneck -38.851398 -12.758200 -27.215200
upperneck 42.902199 -16.339479 26.444799
head 22.660200 -6.612380 11.741200
rclavicle -0.000000 -0.000000
rhumerus -51.719200 31.100800 -167.157196
rradius 81.623199
rwrist -39.940601
rhand -61.701000 -43.997398
rfingers 14.250040
rthumb -8.277500 -103.876602
lclavicle -0.000000 -0.000000
lhumerus -104.142197 -20.304001 191.783997
lradius 53.447399
lwrist 17.864019
lhand -24.671600 -54.050201
lfingers 14.250040
lthumb 27.466600 5.003300
rfemur 28.399599 12.164520 65.550003
rtibia 0.000000
rfoot -17.722481 12.638400
rtoes -18.755739
lfemur -84.792603 -6.898480 -18.811819
ltibia 40.448799
lfoot -31.431000 30.763201
ltoes -36.081402
398
root 19.210400 33.966801 39.024399 12.742580 -2.929820 -13.596340
lowerback -15.225440 6.609820 6.360660
upperback 0.517242 7.895220 7.565300
thorax 8.968020 3.972680 5.198340
lowerneck -38.661999 -12.702520 -27.336000
upperneck 42.876400 -16.287439 26.606800
head 22.619400 -6.587500 11.834800
rclavicle 0.000000 0.000000
rhumerus -51.921398 31.159599 -167.624405
rradius 81.240402
rwrist -39.870201
rhand -61.215599 -44.316799
rfingers 14.250040
rthumb -7.808760 -104.204597
lclavicle 0.000000 0.000000
lhumerus -104.776398 -20.195999 191.901794
lradius 53.416401
lwrist 17.459221
lhand -23.215401 -52.115799
lfingers 14.250040
lthumb 28.870001 6.840220
rfemur 28.900000 12.251940 65.207199
rtibia -0.000000
rfoot -17.645060 12.922480
rtoes -22.423599
lfemur -85.515800 -8.706440 -17.808701
ltibia 39.864799
lfoot -32.439999 30.944799
ltoes -28.231400
399
root 19.234400 33.943802 39.303398 13.012500 -3.007620 -14.040040
lowerback -15.461100 6.614680 6.637500
upperback 0.485716 7.857340 7.701020
thorax 9.078000 3.958120 5.196780
lowerneck -38.605202 -12.578160 -27.454000
upperneck 42.610001 -16.089380 26.747400
head 22.489599 -6.494180 11.933800
rclavicle -0.000000 -0.000000
rhumerus -51.935600 31.616199 -167.932999
rradius 80.833397
rwrist -39.721802
rhand -60.397400 -44.355598
rfingers 14.250040
rthumb -7.018780 -104.257401
lclavicle -0.000000 -0.000000
lhumerus -105.200996 -19.587620 191.729797
lradius 53.734200
lwrist 16.581579
lhand -19.425659 -42.480598
lfingers 14.250040
lthumb 32.520401 16.195761
rfemur 29.572201 12.264840 65.567001
rtibia 0.000000
rfoot -17.086620 13.186400
rtoes -20.030199
lfemur -85.983002 -10.190040 -16.179960
ltibia 39.402802
lfoot -33.519001 31.109800
ltoes -21.676600
